<?xml version="1.0" standalone="no"?>
<!DOCTYPE svg PUBLIC "-//W3C//DTD SVG 20010904//EN"
 "http://www.w3.org/TR/2001/REC-SVG-20010904/DTD/svg10.dtd">
<svg version="1.0" xmlns="http://www.w3.org/2000/svg"
 width="499.000000pt" height="395.000000pt" viewBox="0 0 499.000000 395.000000"
 preserveAspectRatio="xMidYMid meet">
<metadata>
Created by potrace 1.16, written by Peter Selinger 2001-2019
</metadata>
<g transform="translate(0.000000,395.000000) scale(0.100000,-0.100000)"
fill="#000000" stroke="none">
<path d="M2554 3802 c-5 -4 -54 -61 -109 -127 -55 -66 -106 -128 -115 -137 -8
-10 -19 -18 -24 -18 -5 0 -36 27 -68 60 -33 33 -65 60 -72 60 -7 0 -53 -52
-101 -115 l-87 -115 -50 0 -49 0 -21 -50 c-20 -49 -22 -50 -63 -50 -43 0 -73
-20 -60 -40 3 -5 34 -10 69 -10 l63 0 23 50 c23 48 25 50 66 50 44 0 43 0 117
95 65 86 90 115 97 115 4 0 51 -47 105 -105 53 -58 103 -105 110 -105 28 0 26
23 -4 65 -17 24 -31 48 -31 54 0 6 12 24 28 41 15 16 37 42 49 57 12 15 30 38
41 51 11 13 35 41 52 62 18 22 37 40 41 40 5 0 21 -20 36 -45 16 -25 42 -67
58 -94 26 -43 35 -50 71 -56 36 -5 46 -13 79 -60 l37 -55 -26 -31 c-27 -32
-31 -59 -10 -66 6 -2 48 39 94 92 45 52 85 95 90 95 4 0 35 -38 69 -85 l62
-85 63 0 62 0 50 -60 c33 -41 55 -60 68 -58 25 4 31 22 14 39 -7 8 -35 40 -62
72 l-48 57 -63 0 c-57 0 -64 2 -81 28 -46 72 -119 162 -130 162 -7 0 -34 -25
-61 -55 -26 -30 -52 -55 -58 -55 -5 0 -25 25 -43 55 -30 50 -36 54 -74 57 -41
3 -42 4 -107 110 -64 106 -79 123 -97 110z"/>
<path d="M2493 3366 c-37 -17 -79 -77 -88 -126 -7 -42 26 -114 66 -143 65 -47
168 -27 215 42 44 64 26 168 -38 214 -34 25 -113 32 -155 13z"/>
<path d="M2032 3100 c-33 -31 -38 -67 -15 -98 20 -27 21 -27 162 -30 l141 -3
1 -37 c1 -20 1 -43 0 -49 -2 -16 14 -17 40 -3 15 8 19 21 19 58 0 77 0 77
-167 80 -81 2 -152 7 -157 12 -5 6 -4 15 4 25 10 12 41 15 182 15 l170 0 -14
23 c-15 21 -22 22 -180 25 -153 2 -165 1 -186 -18z"/>
<path d="M2725 3098 l-15 -23 172 -5 c169 -5 173 -5 176 -27 5 -31 -23 -36
-160 -30 -149 7 -158 3 -158 -67 0 -44 4 -57 19 -66 30 -15 31 -14 31 40 l0
50 134 0 c74 0 142 3 151 6 48 19 48 116 -1 134 -14 6 -95 10 -179 10 -148 0
-154 -1 -170 -22z"/>
<path d="M2265 2792 l-230 -77 1 -52 c2 -56 27 -137 53 -172 16 -21 18 -21 61
-6 85 31 175 31 280 0 108 -31 157 -30 279 4 93 26 161 27 243 1 l63 -20 16
21 c23 31 49 118 52 174 l2 50 -235 77 c-129 43 -242 78 -252 78 -14 0 -16
-17 -17 -142 -1 -79 -6 -147 -11 -152 -6 -6 -15 -4 -25 4 -12 10 -15 38 -15
151 0 126 -2 139 -17 138 -10 0 -121 -35 -248 -77z"/>
<path d="M1743 2453 c-8 -3 -13 -24 -13 -54 l0 -49 48 0 c27 0 75 -9 108 -21
80 -29 178 -29 270 -1 90 28 191 29 267 3 98 -34 151 -35 250 -7 110 33 200
34 293 4 91 -28 171 -28 262 1 45 14 90 22 117 19 l45 -3 0 46 c0 26 -6 51
-13 58 -16 12 -98 1 -166 -23 -62 -23 -166 -20 -247 6 -89 28 -196 28 -278 -1
-78 -28 -168 -27 -260 1 -90 27 -188 27 -276 -1 -81 -26 -159 -26 -252 -2 -84
22 -138 30 -155 24z"/>
<path d="M1732 2256 l3 -50 80 -17 c44 -9 93 -22 108 -28 47 -18 158 -13 233
11 90 28 187 28 274 0 83 -28 175 -28 258 -2 110 34 158 36 260 6 112 -32 171
-33 292 -2 52 13 107 26 123 30 25 6 27 10 27 56 l0 49 -37 -6 c-21 -3 -78
-17 -127 -30 -104 -29 -177 -28 -284 7 -84 26 -143 25 -248 -5 -109 -32 -173
-32 -271 0 -95 30 -161 31 -245 5 -103 -33 -180 -36 -273 -10 -44 13 -102 26
-128 30 l-48 7 3 -51z"/>
<path d="M947 1883 c-36 -40 -109 -220 -147 -358 -21 -81 -50 -174 -64 -208
-13 -34 -34 -93 -46 -132 -12 -38 -29 -88 -36 -110 -8 -23 -14 -53 -14 -68 0
-15 -4 -27 -10 -27 -16 0 -36 -49 -83 -210 -62 -207 -69 -241 -70 -340 -1 -93
10 -126 60 -171 98 -92 303 -105 527 -33 94 30 194 74 237 105 l30 21 27 -24
c38 -35 56 -39 75 -17 9 10 14 19 11 19 -4 0 -1 7 7 16 9 11 9 18 2 22 -18 11
-21 135 -6 239 29 213 37 249 77 348 43 106 65 200 50 215 -15 15 -81 15 -99
0 -8 -7 -33 -50 -54 -95 -21 -46 -48 -88 -59 -94 -11 -6 -24 -21 -28 -33 -4
-13 -15 -34 -24 -48 -10 -14 -31 -47 -48 -75 -40 -65 -125 -174 -136 -175 -11
0 -1 69 19 140 9 30 21 71 25 90 5 19 20 57 35 83 36 69 33 92 -15 117 -39 20
-39 20 -50 1 -5 -11 -10 -32 -11 -48 0 -15 -3 -22 -6 -15 -3 8 -11 5 -24 -12
-23 -29 -25 -44 -3 -21 32 31 24 6 -30 -104 -45 -91 -55 -122 -57 -169 -1 -32
3 -67 9 -79 19 -34 72 -73 100 -73 43 0 103 41 140 95 20 27 46 61 59 75 12
13 23 28 23 32 0 5 5 8 11 8 6 0 8 -7 5 -15 -19 -50 -38 -228 -33 -307 5 -84
5 -88 -15 -88 -11 0 -59 -13 -107 -29 -104 -36 -220 -64 -362 -87 -95 -16
-110 -16 -145 -3 -50 19 -74 64 -74 139 0 74 36 266 65 349 27 78 36 103 68
196 14 39 30 84 36 100 6 17 20 62 31 101 11 38 29 87 40 107 19 35 31 75 50
163 5 23 27 83 50 135 23 52 55 131 72 177 l30 83 -21 45 c-13 27 -31 48 -47
54 -32 12 -28 13 -47 -7z"/>
<path d="M3070 1774 c-6 -14 -10 -31 -10 -38 0 -6 -4 -16 -9 -21 -10 -11 -76
-175 -86 -215 -12 -45 -49 -135 -61 -149 -8 -9 -47 -17 -104 -22 -50 -4 -94
-10 -98 -14 -17 -16 35 -35 98 -35 37 0 69 -2 72 -5 3 -3 -3 -29 -13 -58 -30
-88 -68 -230 -74 -279 -6 -45 -8 -48 -77 -89 -38 -23 -124 -93 -189 -155 -141
-133 -216 -177 -294 -172 -44 3 -49 6 -57 33 -11 39 -1 156 20 223 17 56 16
55 102 67 55 7 123 31 172 61 41 26 98 84 98 100 0 6 7 17 16 25 27 22 45 69
46 118 0 100 -62 156 -170 155 -49 0 -69 -5 -95 -24 -30 -22 -44 -37 -112
-115 -44 -51 -125 -175 -131 -203 -4 -15 -20 -56 -36 -92 -33 -74 -55 -197
-44 -252 19 -103 157 -170 283 -139 73 19 169 68 188 97 22 34 12 42 -24 21
-35 -21 -41 -21 -41 -2 0 8 21 26 48 41 65 38 161 114 220 174 27 27 51 50 53
50 6 0 -6 -100 -21 -177 -13 -68 -1 -233 20 -273 18 -33 90 -80 123 -80 22 0
42 13 87 59 56 58 71 79 103 147 8 17 19 34 25 38 17 10 70 120 77 158 4 20
18 51 31 69 27 37 28 39 15 39 -5 0 -21 -20 -36 -45 -14 -25 -35 -51 -46 -58
-10 -6 -19 -19 -19 -28 0 -8 -10 -21 -23 -28 -12 -7 -36 -33 -52 -59 -33 -52
-147 -172 -164 -172 -13 0 -13 65 -1 190 13 145 37 270 75 390 20 63 44 143
54 176 25 85 55 131 91 139 41 9 48 25 11 25 -40 0 -44 10 -21 55 11 21 25 54
31 74 12 39 55 145 70 174 14 25 -17 85 -55 108 -41 25 -55 24 -66 -7z m-551
-555 c15 -44 14 -103 -3 -144 -17 -39 -106 -114 -188 -156 -71 -36 -92 -38
-82 -6 3 12 11 24 15 25 5 2 9 9 9 16 0 25 142 238 180 269 41 35 56 34 69 -4z"/>
<path d="M2120 1370 c0 -11 -4 -20 -9 -20 -4 0 -30 -36 -57 -81 -27 -45 -85
-127 -129 -182 -44 -56 -84 -110 -90 -121 -24 -45 -35 -15 -63 159 -24 147
-56 207 -91 172 -8 -8 -11 -6 -11 6 0 11 -8 17 -25 17 -23 0 -25 -4 -25 -45 0
-24 7 -82 15 -127 38 -203 48 -256 61 -308 20 -77 19 -82 -25 -138 -22 -27
-54 -78 -71 -113 -18 -35 -36 -65 -41 -67 -5 -2 -9 -10 -9 -18 0 -7 -16 -38
-35 -68 -19 -29 -32 -56 -29 -58 2 -3 -2 -11 -11 -18 -8 -7 -15 -23 -15 -35 0
-13 -11 -32 -25 -43 -29 -23 -32 -32 -10 -32 8 0 15 5 15 10 0 6 6 10 13 10
19 0 109 100 157 174 24 36 46 66 50 66 5 0 20 21 35 47 15 27 35 56 43 66 15
17 17 15 44 -28 28 -45 68 -71 95 -61 22 9 14 24 -9 19 -20 -4 -21 -3 -6 6 19
13 17 47 -8 143 -14 52 -13 60 2 90 9 17 22 37 28 44 6 6 18 22 26 34 8 12 27
36 42 54 15 17 28 34 28 37 0 4 18 26 40 50 22 24 50 64 61 89 12 25 34 61 49
80 73 93 88 171 34 184 -13 4 -24 11 -24 16 0 6 -4 10 -10 10 -5 0 -10 -9 -10
-20z"/>
<path d="M3559 1327 c-33 -18 -55 -42 -91 -98 -26 -41 -55 -92 -66 -114 -10
-22 -44 -81 -74 -130 -30 -50 -53 -96 -51 -102 3 -7 -10 -43 -27 -82 -37 -85
-50 -150 -50 -248 0 -110 20 -144 102 -171 108 -35 117 -35 204 -2 75 28 122
62 166 117 16 21 16 22 -3 28 -29 10 -19 27 29 50 23 11 56 35 75 53 39 38 48
40 46 10 -4 -49 2 -69 34 -104 39 -45 95 -71 169 -80 68 -8 130 17 223 90 121
94 395 379 380 394 -3 4 -9 2 -13 -4 -4 -5 -18 -17 -32 -25 -22 -15 -92 -74
-185 -158 -194 -176 -426 -275 -448 -192 -7 29 19 194 37 233 17 35 19 35 86
40 87 7 184 52 236 112 19 22 46 52 58 66 31 35 51 130 36 175 -14 44 -70 92
-115 101 -47 8 -114 -2 -147 -24 -65 -43 -218 -251 -250 -340 -11 -31 -29 -82
-39 -113 -15 -43 -37 -74 -92 -130 -160 -165 -417 -306 -441 -243 -19 50 13
264 50 336 13 25 20 28 69 28 69 0 141 31 218 95 32 27 67 66 78 87 11 21 23
38 27 38 14 0 36 106 37 177 0 65 -3 74 -28 101 -52 54 -137 66 -208 29z m139
-130 c6 -91 -11 -141 -65 -194 -78 -75 -206 -153 -218 -133 -8 14 61 154 112
226 24 34 43 66 43 72 0 5 22 34 50 63 60 64 72 59 78 -34z m611 -18 c13 -61
1 -121 -32 -158 -31 -33 -133 -102 -190 -129 -39 -18 -49 -19 -53 -8 -7 19 61
151 96 186 3 3 13 21 24 40 28 53 97 120 122 120 19 0 24 -8 33 -51z"/>
</g>
</svg>
